<svg id="Capa_1" enable-background="new 0 0 512 512" height="512" viewBox="0 0 512 512" width="512" xmlns="http://www.w3.org/2000/svg"><g><g><g><g><g><path d="m255.999 10.663-97.499 73.113h195z" fill="#9bb6f1"/></g><g><path d="m322.843 62.288h-100.189l50.094-37.565-18.75-14.06-97.499 73.113h195z" fill="#6990eb"/></g><g><path d="m76 241.799-.019 231.882h360.036v-231.882l-180.018-126.794z" fill="#d3e0ef"/></g><g><path d="m98.372 451.291.018-225.264-22.39 15.772-.019 231.882h360.036v-22.39z" fill="#9bb6f1"/></g><g><path d="m46.982 83.776v158.023h29.762l179.255-126.794 180.175 126.794h29.843v-158.023z" fill="#9bb6f1"/></g><g><path d="m458.897 228.319-189.889-132.104-13.008 9.711-.001 9.079 180.175 126.794h29.843v-22.979z" fill="#6990eb"/></g><g><path d="m99.467 218.82h-29.762v-135.044h-22.723v158.023h29.762l23.463-16.597" fill="#6990eb"/></g><g><path d="m69.776 106.417h15v15h-15z" fill="#fff"/></g><g><path d="m69.776 136.417h15v15h-15z" fill="#fff"/></g><g><path d="m196 241h120v233.073h-120z" fill="#ffc277"/></g><g><path d="m217.792 451.28v-210.28h-21.792v233.073h120v-22.793z" fill="#ff905b"/></g><g><path d="m61.983 474.682h389.035v29.889h-389.035z" fill="#6de89a"/></g><g><path d="m61.983 473.681h21.996v29.889h-21.996z" fill="#2ce079"/></g><g><path d="m353.5 293.5h45v45h-45z" fill="#9bb6f1"/></g><g><path d="m375.724 316v-22.5h-22.5v45h45v-22.5z" fill="#6990eb"/></g><g><path d="m113.5 293.5h45v45h-45z" fill="#9bb6f1"/></g><g><path d="m136 316v-22.5h-22.5v45h45v-22.5z" fill="#6990eb"/></g></g></g></g><g><path d="m473.016 248.009v-173.022h-117.516l-100-74.987-99.998 74.987h-116.518v173.021h28.999v127.982h15v-131.06l73.652-52.096-8.662-12.246-74.111 52.421h-19.878v-143.022h404.033v143.022h-19.969l-182.56-128.471-94.318 66.714 8.662 12.246 85.679-60.603 172.506 121.396v222.819h-105.017v-234.9h-134.999v234.9h-105.017l.017-76.119-15-.004-.017 76.123h-14v44.89h306.516v-15h-291.516v-14.89h374.033.001v14.89h-37.518v15h52.518v-44.889h-15.001v-219.102zm-217.516-229.26 74.997 56.238h-149.993zm-52.499 228.462h104.999v219.9h-104.999z"/><path d="m375.5 497h15v15h-15z"/><path d="m278 345.99h15v15h-15z"/><path d="m345.5 285.991v60h60v-60zm45 44.999h-30v-30h30z"/><path d="m105.501 285.991v60h60v-60zm45 44.999h-30v-30h30z"/></g></g></svg>